<?xml version="1.0" standalone="no"?>
<!DOCTYPE svg PUBLIC "-//W3C//DTD SVG 20010904//EN"
 "http://www.w3.org/TR/2001/REC-SVG-20010904/DTD/svg10.dtd">
<svg version="1.0" xmlns="http://www.w3.org/2000/svg"
 width="218.000000pt" height="244.000000pt" viewBox="0 0 218.000000 244.000000"
 preserveAspectRatio="xMidYMid meet">

<g transform="translate(0.000000,244.000000) scale(0.100000,-0.100000)"
fill="#000000" stroke="none">
<path d="M770 2399 c-36 -60 -115 -128 -190 -163 -61 -29 -72 -31 -180 -31
-111 0 -118 1 -184 34 -66 32 -139 94 -184 156 l-22 30 3 -565 c3 -474 7 -582
21 -668 50 -305 152 -510 350 -707 155 -155 325 -274 581 -406 l130 -68 143
74 c401 208 659 436 791 701 89 178 129 367 138 654 9 277 -7 990 -21 965 -30
-52 -123 -137 -184 -167 -88 -44 -209 -51 -310 -19 -90 30 -168 85 -222 158
l-45 62 -295 0 -295 0 -25 -40z"/>
</g>
</svg>
