<svg width="43" height="43" viewBox="0 0 43 43" fill="none" xmlns="http://www.w3.org/2000/svg">
<path fill-rule="evenodd" clip-rule="evenodd" d="M5.38352 13.3332C5.54536 13.3344 5.7092 13.375 5.86064 13.4592L21.5 22.1477L37.1394 13.4592C37.2908 13.375 37.4546 13.3344 37.6165 13.3332C37.585 11.551 37.4376 10.5283 36.7463 9.83699C35.8676 8.95831 34.4534 8.95831 31.625 8.95831H11.375C8.54657 8.95831 7.13236 8.95831 6.25368 9.83699C5.56239 10.5283 5.41496 11.551 5.38352 13.3332ZM37.625 15.4773L22.4713 23.896C21.8672 24.2316 21.1328 24.2316 20.5287 23.896L5.375 15.4773V28.0416C5.375 30.8701 5.375 32.2843 6.25368 33.163C7.13236 34.0416 8.54657 34.0416 11.375 34.0416H31.625C34.4534 34.0416 35.8676 34.0416 36.7463 33.163C37.625 32.2843 37.625 30.8701 37.625 28.0416V15.4773Z" fill="#292929"/>
</svg>
