<svg width="43" height="43" viewBox="0 0 43 43" fill="none" xmlns="http://www.w3.org/2000/svg">
<g clip-path="url(#clip0_244_560)">
<path d="M21.503 0C13.8353 0 7.62012 6.21525 7.62012 13.8705C7.62012 21.5257 20.5929 42.3782 20.5929 42.3782C21.0978 43.2073 21.9144 43.2073 22.4132 42.3782C22.4132 42.3782 35.3797 21.5319 35.3797 13.8705C35.3797 6.20898 29.1708 0 21.503 0ZM21.503 21.5569C16.4847 21.5569 12.4264 17.4924 12.4264 12.4803C12.4264 7.46823 16.4847 3.39744 21.503 3.39744C26.5213 3.39744 30.5796 7.46196 30.5796 12.474C30.5796 17.4861 26.5213 21.5569 21.503 21.5569Z" fill="black"/>
<path d="M21.503 18.1718C24.6464 18.1718 27.1946 15.6236 27.1946 12.4803C27.1946 9.33694 24.6464 6.78876 21.503 6.78876C18.3597 6.78876 15.8115 9.33694 15.8115 12.4803C15.8115 15.6236 18.3597 18.1718 21.503 18.1718Z" fill="black"/>
</g>
<defs>
<clipPath id="clip0_244_560">
<rect width="43" height="43" fill="white"/>
</clipPath>
</defs>
</svg>
