<svg width="43" height="43" viewBox="0 0 43 43" fill="none" xmlns="http://www.w3.org/2000/svg">
<path d="M8.67962 10.0046L12.9771 5.70711C13.3676 5.31658 14.0008 5.31658 14.3913 5.70711L19.9245 11.2403C20.315 11.6308 20.315 12.264 19.9245 12.6545L16.2903 16.2886C15.7712 16.8077 15.6425 17.6008 15.9708 18.2574C17.8688 22.0533 20.9467 25.1312 24.7426 27.0292C25.3992 27.3575 26.1923 27.2288 26.7114 26.7097L30.3455 23.0755C30.736 22.685 31.3692 22.685 31.7597 23.0755L37.2929 28.6087C37.6834 28.9992 37.6834 29.6324 37.2929 30.0229L32.9954 34.3204C30.8841 36.4317 27.5415 36.6693 25.1528 34.8777L18.0496 29.5504C16.3061 28.2427 14.7573 26.6939 13.4496 24.9504L8.12226 17.8472C6.33072 15.4585 6.56827 12.1159 8.67962 10.0046Z" fill="#292929"/>
</svg>
